<svg width="24" height="24" viewBox="0 0 24 24" fill="none" xmlns="http://www.w3.org/2000/svg">
<path d="M18.5 19.5H5.5V17.5H18.5V19.5ZM13.6885 6C14.2408 6 14.6885 6.44772 14.6885 7V11.0283H15.5391C15.9435 11.0283 16.3081 11.2719 16.4629 11.6455C16.6176 12.0192 16.5321 12.4494 16.2461 12.7354L12.4766 16.5029C12.0861 16.893 11.4529 16.8932 11.0625 16.5029L7.29297 12.7354C7.00704 12.4494 6.92152 12.0191 7.07617 11.6455C7.23093 11.272 7.59572 11.0285 8 11.0283H8.85059V7C8.85059 6.44783 9.29847 6.00019 9.85059 6H13.6885Z" fill="black"/>
</svg>
